<?xml version="1.0" encoding="UTF-8" standalone="no"?>
<!-- Created with Inkscape (http://www.inkscape.org/) -->

<svg
   xmlns:dc="http://purl.org/dc/elements/1.1/"
   xmlns:cc="http://creativecommons.org/ns#"
   xmlns:rdf="http://www.w3.org/1999/02/22-rdf-syntax-ns#"
   xmlns:svg="http://www.w3.org/2000/svg"
   xmlns="http://www.w3.org/2000/svg"
   xmlns:sodipodi="http://sodipodi.sourceforge.net/DTD/sodipodi-0.dtd"
   xmlns:inkscape="http://www.inkscape.org/namespaces/inkscape"
   width="571"
   height="161"
   id="svg4582"
   version="1.1"
   inkscape:version="0.47 r22583"
   sodipodi:docname="entryActionsAFTER.eps">
  <defs
     id="defs4584">
    <inkscape:perspective
       sodipodi:type="inkscape:persp3d"
       inkscape:vp_x="0 : 526.18109 : 1"
       inkscape:vp_y="0 : 1000 : 0"
       inkscape:vp_z="744.09448 : 526.18109 : 1"
       inkscape:persp3d-origin="372.04724 : 350.78739 : 1"
       id="perspective4590" />
    <inkscape:perspective
       id="perspective4241"
       inkscape:persp3d-origin="0.5 : 0.33333333 : 1"
       inkscape:vp_z="1 : 0.5 : 1"
       inkscape:vp_y="0 : 1000 : 0"
       inkscape:vp_x="0 : 0.5 : 1"
       sodipodi:type="inkscape:persp3d" />
    <clipPath
       clipPathUnits="userSpaceOnUse"
       id="clipPath18">
      <path
         d="m -166,-14 498,0 0,42 -498,0 0,-42 z"
         id="path60" />
    </clipPath>
    <clipPath
       clipPathUnits="userSpaceOnUse"
       id="clipPath17">
      <path
         d="m -165,-14 495,0 0,42 -495,0 0,-42 z"
         id="path57" />
    </clipPath>
    <clipPath
       clipPathUnits="userSpaceOnUse"
       id="clipPath16">
      <path
         d="m -168,-14 504,0 0,42 -504,0 0,-42 z"
         id="path54" />
    </clipPath>
    <clipPath
       clipPathUnits="userSpaceOnUse"
       id="clipPath15">
      <path
         d="m -106,-14 318,0 0,42 -318,0 0,-42 z"
         id="path51" />
    </clipPath>
    <clipPath
       clipPathUnits="userSpaceOnUse"
       id="clipPath4253">
      <path
         d="m -106,-14 318,0 0,42 -318,0 0,-42 z"
         id="path4255" />
    </clipPath>
    <clipPath
       clipPathUnits="userSpaceOnUse"
       id="clipPath4257">
      <path
         d="m -106,-14 318,0 0,42 -318,0 0,-42 z"
         id="path4259" />
    </clipPath>
    <clipPath
       clipPathUnits="userSpaceOnUse"
       id="clipPath14">
      <path
         d="M 0,0 264,0 264,204 0,204 0,0 z"
         id="path48" />
    </clipPath>
    <clipPath
       clipPathUnits="userSpaceOnUse"
       id="clipPath4263">
      <path
         d="M 0,0 264,0 264,204 0,204 0,0 z"
         id="path4265" />
    </clipPath>
    <clipPath
       clipPathUnits="userSpaceOnUse"
       id="clipPath4267">
      <path
         d="M 0,0 264,0 264,204 0,204 0,0 z"
         id="path4269" />
    </clipPath>
    <clipPath
       clipPathUnits="userSpaceOnUse"
       id="clipPath4271">
      <path
         d="M 0,0 264,0 264,204 0,204 0,0 z"
         id="path4273" />
    </clipPath>
    <clipPath
       clipPathUnits="userSpaceOnUse"
       id="clipPath4275">
      <path
         d="M 0,0 264,0 264,204 0,204 0,0 z"
         id="path4277" />
    </clipPath>
    <clipPath
       clipPathUnits="userSpaceOnUse"
       id="clipPath13">
      <path
         d="M 0,0 247,0 247,137 0,137 0,0 z"
         id="path45" />
    </clipPath>
    <clipPath
       clipPathUnits="userSpaceOnUse"
       id="clipPath4281">
      <path
         d="M 0,0 247,0 247,137 0,137 0,0 z"
         id="path4283" />
    </clipPath>
    <clipPath
       clipPathUnits="userSpaceOnUse"
       id="clipPath4285">
      <path
         d="M 0,0 247,0 247,137 0,137 0,0 z"
         id="path4287" />
    </clipPath>
    <clipPath
       clipPathUnits="userSpaceOnUse"
       id="clipPath4289">
      <path
         d="M 0,0 247,0 247,137 0,137 0,0 z"
         id="path4291" />
    </clipPath>
    <clipPath
       clipPathUnits="userSpaceOnUse"
       id="clipPath12">
      <path
         d="M 0,0 243,0 243,104 0,104 0,0 z"
         id="path42" />
    </clipPath>
    <clipPath
       clipPathUnits="userSpaceOnUse"
       id="clipPath4295">
      <path
         d="M 0,0 243,0 243,104 0,104 0,0 z"
         id="path4297" />
    </clipPath>
    <clipPath
       clipPathUnits="userSpaceOnUse"
       id="clipPath4299">
      <path
         d="M 0,0 243,0 243,104 0,104 0,0 z"
         id="path4301" />
    </clipPath>
    <clipPath
       clipPathUnits="userSpaceOnUse"
       id="clipPath11">
      <path
         d="M 0,0 263,0 263,104 0,104 0,0 z"
         id="path39" />
    </clipPath>
    <clipPath
       clipPathUnits="userSpaceOnUse"
       id="clipPath4305">
      <path
         d="M 0,0 263,0 263,104 0,104 0,0 z"
         id="path4307" />
    </clipPath>
    <clipPath
       clipPathUnits="userSpaceOnUse"
       id="clipPath4309">
      <path
         d="M 0,0 263,0 263,104 0,104 0,0 z"
         id="path4311" />
    </clipPath>
    <clipPath
       clipPathUnits="userSpaceOnUse"
       id="clipPath4313">
      <path
         d="M 0,0 263,0 263,104 0,104 0,0 z"
         id="path4315" />
    </clipPath>
    <clipPath
       clipPathUnits="userSpaceOnUse"
       id="clipPath4317">
      <path
         d="M 0,0 263,0 263,104 0,104 0,0 z"
         id="path4319" />
    </clipPath>
    <clipPath
       clipPathUnits="userSpaceOnUse"
       id="clipPath4321">
      <path
         d="M 0,0 263,0 263,104 0,104 0,0 z"
         id="path4323" />
    </clipPath>
    <clipPath
       clipPathUnits="userSpaceOnUse"
       id="clipPath4325">
      <path
         d="M 0,0 263,0 263,104 0,104 0,0 z"
         id="path4327" />
    </clipPath>
    <clipPath
       clipPathUnits="userSpaceOnUse"
       id="clipPath4329">
      <path
         d="M 0,0 263,0 263,104 0,104 0,0 z"
         id="path4331" />
    </clipPath>
    <clipPath
       clipPathUnits="userSpaceOnUse"
       id="clipPath4333">
      <path
         d="M 0,0 263,0 263,104 0,104 0,0 z"
         id="path4335" />
    </clipPath>
    <clipPath
       clipPathUnits="userSpaceOnUse"
       id="clipPath6">
      <path
         d="m -80,-14 240,0 0,42 -240,0 0,-42 z"
         id="path24" />
    </clipPath>
    <clipPath
       clipPathUnits="userSpaceOnUse"
       id="clipPath4339">
      <path
         d="m -80,-14 240,0 0,42 -240,0 0,-42 z"
         id="path4341" />
    </clipPath>
    <clipPath
       clipPathUnits="userSpaceOnUse"
       id="clipPath4343">
      <path
         d="m -80,-14 240,0 0,42 -240,0 0,-42 z"
         id="path4345" />
    </clipPath>
    <clipPath
       clipPathUnits="userSpaceOnUse"
       id="clipPath4347">
      <path
         d="m -80,-14 240,0 0,42 -240,0 0,-42 z"
         id="path4349" />
    </clipPath>
    <clipPath
       clipPathUnits="userSpaceOnUse"
       id="clipPath5">
      <path
         d="m -110,-14 330,0 0,42 -330,0 0,-42 z"
         id="path21" />
    </clipPath>
    <clipPath
       clipPathUnits="userSpaceOnUse"
       id="clipPath4353">
      <path
         d="m -110,-14 330,0 0,42 -330,0 0,-42 z"
         id="path4355" />
    </clipPath>
    <clipPath
       clipPathUnits="userSpaceOnUse"
       id="clipPath4357">
      <path
         d="m -110,-14 330,0 0,42 -330,0 0,-42 z"
         id="path4359" />
    </clipPath>
    <clipPath
       clipPathUnits="userSpaceOnUse"
       id="clipPath4">
      <path
         d="m -7,-7 128,0 0,58 -128,0 0,-58 z"
         id="path18" />
    </clipPath>
    <clipPath
       clipPathUnits="userSpaceOnUse"
       id="clipPath4363">
      <path
         d="m -7,-7 128,0 0,58 -128,0 0,-58 z"
         id="path4365" />
    </clipPath>
    <clipPath
       clipPathUnits="userSpaceOnUse"
       id="clipPath4367">
      <path
         d="m -7,-7 128,0 0,58 -128,0 0,-58 z"
         id="path4369" />
    </clipPath>
    <clipPath
       clipPathUnits="userSpaceOnUse"
       id="clipPath1">
      <path
         d="m -7,-7 98,0 0,58 -98,0 0,-58 z"
         id="path9" />
    </clipPath>
    <clipPath
       clipPathUnits="userSpaceOnUse"
       id="clipPath4373">
      <path
         d="m -7,-7 98,0 0,58 -98,0 0,-58 z"
         id="path4375" />
    </clipPath>
    <clipPath
       clipPathUnits="userSpaceOnUse"
       id="clipPath4377">
      <path
         d="m -7,-7 98,0 0,58 -98,0 0,-58 z"
         id="path4379" />
    </clipPath>
    <clipPath
       clipPathUnits="userSpaceOnUse"
       id="clipPath4381">
      <path
         d="m -7,-7 98,0 0,58 -98,0 0,-58 z"
         id="path4383" />
    </clipPath>
  </defs>
  <sodipodi:namedview
     id="base"
     pagecolor="#ffffff"
     bordercolor="#666666"
     borderopacity="1.0"
     inkscape:pageopacity="0.0"
     inkscape:pageshadow="2"
     inkscape:zoom="0.35"
     inkscape:cx="414.78571"
     inkscape:cy="-185.21428"
     inkscape:document-units="px"
     inkscape:current-layer="layer1"
     showgrid="false"
     inkscape:window-width="575"
     inkscape:window-height="477"
     inkscape:window-x="509"
     inkscape:window-y="337"
     inkscape:window-maximized="0" />
  <metadata
     id="metadata4587">
    <rdf:RDF>
      <cc:Work
         rdf:about="">
        <dc:format>image/svg+xml</dc:format>
        <dc:type
           rdf:resource="http://purl.org/dc/dcmitype/StillImage" />
        <dc:title></dc:title>
      </cc:Work>
    </rdf:RDF>
  </metadata>
  <g
     inkscape:label="Layer 1"
     inkscape:groupmode="layer"
     id="layer1"
     transform="translate(39.785714,-186.1479)">
    <g
       style="font-size:11px;fill:#000000;fill-opacity:1;stroke:#000000;stroke-linecap:butt;stroke-linejoin:round;stroke-miterlimit:0;stroke-opacity:1;font-family:sans-serif"
       font-size="11"
       transform="translate(-39.285714,186.6479)"
       text-rendering="geometricPrecision"
       stroke-miterlimit="0"
       id="g110">
      <rect
         style="fill:none"
         x="0"
         y="0"
         clip-path="url(#clipPath1)"
         width="80"
         rx="10"
         ry="10"
         height="40"
         id="rect112" />
    </g>
    <g
       style="font-size:11px;fill:#000000;fill-opacity:1;stroke:#000000;stroke-linecap:butt;stroke-linejoin:round;stroke-miterlimit:0;stroke-opacity:1;font-family:sans-serif"
       font-size="11"
       transform="translate(450.71429,186.6479)"
       text-rendering="geometricPrecision"
       stroke-miterlimit="0"
       id="g118">
      <rect
         style="fill:none"
         x="0"
         y="0"
         clip-path="url(#clipPath1)"
         width="80"
         rx="10"
         ry="10"
         height="40"
         id="rect120" />
    </g>
    <g
       style="font-size:11px;fill:#000000;fill-opacity:1;stroke:#000000;stroke-linecap:butt;stroke-linejoin:round;stroke-miterlimit:0;stroke-opacity:1;font-family:sans-serif"
       font-size="11"
       transform="translate(-39.285714,236.6479)"
       text-rendering="geometricPrecision"
       stroke-miterlimit="0"
       id="g126">
      <rect
         style="fill:none"
         x="0"
         y="0"
         clip-path="url(#clipPath1)"
         width="80"
         rx="10"
         ry="10"
         height="40"
         id="rect128" />
    </g>
    <g
       style="font-size:11px;fill:#000000;fill-opacity:1;stroke:#000000;stroke-linecap:butt;stroke-linejoin:round;stroke-miterlimit:0;stroke-opacity:1;font-family:sans-serif"
       font-size="11"
       transform="translate(-39.285714,306.6479)"
       text-rendering="geometricPrecision"
       stroke-miterlimit="0"
       id="g134">
      <rect
         style="fill:none"
         x="0"
         y="0"
         clip-path="url(#clipPath1)"
         width="80"
         rx="10"
         ry="10"
         height="40"
         id="rect136" />
    </g>
    <g
       style="font-size:11px;fill:#000000;fill-opacity:1;stroke:#000000;stroke-linecap:butt;stroke-linejoin:round;stroke-miterlimit:0;stroke-opacity:1;font-family:sans-serif"
       font-size="11"
       transform="translate(200.71429,186.6479)"
       text-rendering="geometricPrecision"
       stroke-miterlimit="0"
       id="g142">
      <rect
         style="fill:none"
         x="0"
         y="0"
         clip-path="url(#clipPath4)"
         width="110"
         rx="10"
         ry="10"
         height="40"
         id="rect144" />
    </g>
    <g
       style="font-size:11px;fill:#000000;fill-opacity:1;stroke:#000000;stroke-linecap:butt;stroke-linejoin:round;stroke-miterlimit:0;stroke-opacity:1;font-family:sans-serif"
       font-size="11"
       transform="translate(200.71429,236.6479)"
       text-rendering="geometricPrecision"
       stroke-miterlimit="0"
       id="g150">
      <rect
         style="fill:none"
         x="0"
         y="0"
         clip-path="url(#clipPath4)"
         width="110"
         rx="10"
         ry="10"
         height="40"
         id="rect152" />
    </g>
    <g
       style="font-size:11px;fill:#000000;fill-opacity:1;stroke:#000000;stroke-linecap:butt;stroke-linejoin:round;stroke-miterlimit:0;stroke-opacity:1;font-family:sans-serif"
       font-size="11"
       transform="translate(200.71429,306.6479)"
       text-rendering="geometricPrecision"
       stroke-miterlimit="0"
       id="g158">
      <rect
         style="fill:none"
         x="0"
         y="0"
         clip-path="url(#clipPath4)"
         width="110"
         rx="10"
         ry="10"
         height="40"
         id="rect160" />
    </g>
    <g
       style="font-size:11px;fill:#000000;fill-opacity:1;stroke:#000000;stroke-opacity:1;font-family:sans-serif"
       font-size="11"
       transform="translate(200.71429,306.6479)"
       text-rendering="geometricPrecision"
       id="g162">
      <text
         style="stroke:none"
         x="8"
         xml:space="preserve"
         y="11"
         clip-path="url(#clipPath5)"
         id="text164">StateN_TO_State</text>
    </g>
    <g
       style="font-size:11px;fill:#000000;fill-opacity:1;stroke:#000000;stroke-opacity:1;font-family:sans-serif"
       font-size="11"
       transform="translate(200.71429,236.6479)"
       text-rendering="geometricPrecision"
       id="g166">
      <text
         style="stroke:none"
         x="9"
         xml:space="preserve"
         y="11"
         clip-path="url(#clipPath5)"
         id="text168">State2_TO_State</text>
    </g>
    <g
       style="font-size:11px;fill:#000000;fill-opacity:1;stroke:#000000;stroke-opacity:1;font-family:sans-serif"
       font-size="11"
       transform="translate(200.71429,186.6479)"
       text-rendering="geometricPrecision"
       id="g170">
      <text
         style="stroke:none"
         x="9"
         xml:space="preserve"
         y="11"
         clip-path="url(#clipPath5)"
         id="text172">State1_TO_State</text>
    </g>
    <g
       style="font-size:11px;fill:#000000;fill-opacity:1;stroke:#000000;stroke-opacity:1;font-family:sans-serif"
       font-size="11"
       transform="translate(-39.285714,306.6479)"
       text-rendering="geometricPrecision"
       id="g174">
      <text
         style="stroke:none"
         x="20"
         xml:space="preserve"
         y="11"
         clip-path="url(#clipPath6)"
         id="text176">StateN</text>
    </g>
    <g
       style="font-size:11px;fill:#000000;fill-opacity:1;stroke:#000000;stroke-opacity:1;font-family:sans-serif"
       font-size="11"
       transform="translate(-39.285714,236.6479)"
       text-rendering="geometricPrecision"
       id="g178">
      <text
         style="stroke:none"
         x="21"
         xml:space="preserve"
         y="11"
         clip-path="url(#clipPath6)"
         id="text180">State2</text>
    </g>
    <g
       style="font-size:11px;fill:#000000;fill-opacity:1;stroke:#000000;stroke-opacity:1;font-family:sans-serif"
       font-size="11"
       transform="translate(450.71429,186.6479)"
       text-rendering="geometricPrecision"
       id="g182">
      <text
         style="stroke:none"
         x="24"
         xml:space="preserve"
         y="11"
         clip-path="url(#clipPath6)"
         id="text184">State</text>
    </g>
    <g
       style="font-size:11px;fill:#000000;fill-opacity:1;stroke:#000000;stroke-opacity:1;font-family:sans-serif"
       font-size="11"
       transform="translate(-39.285714,186.6479)"
       text-rendering="geometricPrecision"
       id="g186">
      <text
         style="stroke:none"
         x="21"
         xml:space="preserve"
         y="11"
         clip-path="url(#clipPath6)"
         id="text188">State1</text>
    </g>
    <g
       style="font-size:11px;fill:#000000;fill-opacity:1;stroke:#000000;stroke-linecap:butt;stroke-linejoin:round;stroke-opacity:1;font-family:sans-serif"
       font-size="11"
       transform="translate(-9.2857143,156.6479)"
       text-rendering="geometricPrecision"
       id="g236">
      <line
         style="fill:none"
         y2="50"
         x1="50"
         clip-path="url(#clipPath11)"
         x2="209"
         y1="50"
         id="line238" />
      <line
         style="fill:none"
         y2="44"
         x1="209"
         clip-path="url(#clipPath11)"
         x2="197"
         y1="50"
         id="line240" />
      <line
         style="fill:none"
         y2="56"
         x1="209"
         clip-path="url(#clipPath11)"
         x2="197"
         y1="50"
         id="line242" />
    </g>
    <g
       style="font-size:11px;fill:#000000;fill-opacity:1;stroke:#000000;stroke-linecap:butt;stroke-linejoin:round;stroke-opacity:1;font-family:sans-serif"
       font-size="11"
       transform="translate(-9.2857143,206.6479)"
       text-rendering="geometricPrecision"
       id="g244">
      <line
         style="fill:none"
         y2="50"
         x1="50"
         clip-path="url(#clipPath11)"
         x2="209"
         y1="50"
         id="line246" />
      <line
         style="fill:none"
         y2="44"
         x1="209"
         clip-path="url(#clipPath11)"
         x2="197"
         y1="50"
         id="line248" />
      <line
         style="fill:none"
         y2="56"
         x1="209"
         clip-path="url(#clipPath11)"
         x2="197"
         y1="50"
         id="line250" />
    </g>
    <g
       style="font-size:11px;fill:#000000;fill-opacity:1;stroke:#000000;stroke-linecap:butt;stroke-linejoin:round;stroke-opacity:1;font-family:sans-serif"
       font-size="11"
       transform="translate(-9.2857143,276.6479)"
       text-rendering="geometricPrecision"
       id="g252">
      <line
         style="fill:none"
         y2="50"
         x1="50"
         clip-path="url(#clipPath11)"
         x2="209"
         y1="50"
         id="line254" />
      <line
         style="fill:none"
         y2="44"
         x1="209"
         clip-path="url(#clipPath11)"
         x2="197"
         y1="50"
         id="line256" />
      <line
         style="fill:none"
         y2="56"
         x1="209"
         clip-path="url(#clipPath11)"
         x2="197"
         y1="50"
         id="line258" />
    </g>
    <g
       style="font-size:11px;fill:#000000;fill-opacity:1;stroke:#000000;stroke-linecap:butt;stroke-linejoin:round;stroke-opacity:1;font-family:sans-serif"
       font-size="11"
       transform="translate(260.71429,156.6479)"
       text-rendering="geometricPrecision"
       id="g260">
      <line
         style="fill:none"
         y2="50"
         x1="50"
         clip-path="url(#clipPath12)"
         x2="189"
         y1="50"
         id="line262" />
      <line
         style="fill:none"
         y2="44"
         x1="189"
         clip-path="url(#clipPath12)"
         x2="177"
         y1="50"
         id="line264" />
      <line
         style="fill:none"
         y2="56"
         x1="189"
         clip-path="url(#clipPath12)"
         x2="177"
         y1="50"
         id="line266" />
    </g>
    <g
       style="font-size:11px;fill:#000000;fill-opacity:1;stroke:#000000;stroke-linecap:butt;stroke-linejoin:round;stroke-opacity:1;font-family:sans-serif"
       font-size="11"
       transform="translate(260.71429,173.6479)"
       text-rendering="geometricPrecision"
       id="g268">
      <line
         style="fill:none"
         y2="83"
         x1="50"
         clip-path="url(#clipPath13)"
         x2="160"
         y1="83"
         id="line270" />
      <line
         style="fill:none"
         y2="50"
         x1="160"
         clip-path="url(#clipPath13)"
         x2="193"
         y1="83"
         id="line272" />
      <line
         style="fill:none"
         y2="53"
         x1="193"
         clip-path="url(#clipPath13)"
         x2="180"
         y1="50"
         id="line274" />
      <line
         style="fill:none"
         y2="62"
         x1="193"
         clip-path="url(#clipPath13)"
         x2="189"
         y1="50"
         id="line276" />
    </g>
    <g
       style="font-size:11px;fill:#000000;fill-opacity:1;stroke:#000000;stroke-linecap:butt;stroke-linejoin:round;stroke-opacity:1;font-family:sans-serif"
       font-size="11"
       transform="translate(260.71429,176.6479)"
       text-rendering="geometricPrecision"
       id="g278">
      <line
         style="fill:none"
         y2="150"
         x1="50"
         clip-path="url(#clipPath14)"
         x2="160"
         y1="150"
         id="line280" />
      <line
         style="fill:none"
         y2="80"
         x1="160"
         clip-path="url(#clipPath14)"
         x2="210"
         y1="150"
         id="line282" />
      <line
         style="fill:none"
         y2="50"
         x1="210"
         clip-path="url(#clipPath14)"
         x2="210"
         y1="80"
         id="line284" />
      <line
         style="fill:none"
         y2="62"
         x1="210"
         clip-path="url(#clipPath14)"
         x2="204"
         y1="50"
         id="line286" />
      <line
         style="fill:none"
         y2="62"
         x1="210"
         clip-path="url(#clipPath14)"
         x2="216"
         y1="50"
         id="line288" />
    </g>
    <g
       style="font-size:11px;fill:#000000;fill-opacity:1;stroke:#000000;stroke-opacity:1;font-family:sans-serif"
       font-size="11"
       transform="translate(330.71429,306.6479)"
       text-rendering="geometricPrecision"
       id="g290">
      <text
         style="stroke:none"
         x="10"
         xml:space="preserve"
         y="11"
         clip-path="url(#clipPath15)"
         id="text292">/ entryActivity()</text>
    </g>
    <g
       style="font-size:11px;fill:#000000;fill-opacity:1;stroke:#000000;stroke-opacity:1;font-family:sans-serif"
       font-size="11"
       transform="translate(330.71429,236.6479)"
       text-rendering="geometricPrecision"
       id="g294">
      <text
         style="stroke:none"
         x="10"
         xml:space="preserve"
         y="11"
         clip-path="url(#clipPath15)"
         id="text296">/ entryActivity()</text>
    </g>
    <g
       style="font-size:11px;fill:#000000;fill-opacity:1;stroke:#000000;stroke-opacity:1;font-family:sans-serif"
       font-size="11"
       transform="translate(330.71429,186.6479)"
       text-rendering="geometricPrecision"
       id="g298">
      <text
         style="stroke:none"
         x="10"
         xml:space="preserve"
         y="11"
         clip-path="url(#clipPath15)"
         id="text300">/ entryActivity()</text>
    </g>
    <g
       style="font-size:11px;fill:#000000;fill-opacity:1;stroke:#000000;stroke-opacity:1;font-family:sans-serif"
       font-size="11"
       transform="translate(40.714286,306.6479)"
       text-rendering="geometricPrecision"
       id="g302">
      <text
         style="stroke:none"
         x="10"
         xml:space="preserve"
         y="11"
         clip-path="url(#clipPath16)"
         id="text304">triggerN [guardN] / effectN</text>
    </g>
    <g
       style="font-size:11px;fill:#000000;fill-opacity:1;stroke:#000000;stroke-opacity:1;font-family:sans-serif"
       font-size="11"
       transform="translate(40.714286,236.6479)"
       text-rendering="geometricPrecision"
       id="g306">
      <text
         style="stroke:none"
         x="10"
         xml:space="preserve"
         y="11"
         clip-path="url(#clipPath17)"
         id="text308">trigger2 [guard2] / effect2</text>
    </g>
    <g
       style="font-size:11px;fill:#000000;fill-opacity:1;stroke:#000000;stroke-opacity:1;font-family:sans-serif"
       font-size="11"
       transform="translate(40.714286,186.6479)"
       text-rendering="geometricPrecision"
       id="g310">
      <text
         style="stroke:none"
         x="10"
         xml:space="preserve"
         y="11"
         clip-path="url(#clipPath18)"
         id="text312">trigger1 [guard1] / effect1</text>
    </g>
  </g>
</svg>
