<?xml version="1.0" encoding="UTF-8" standalone="no"?>
<!-- Created with Inkscape (http://www.inkscape.org/) -->

<svg
   xmlns:dc="http://purl.org/dc/elements/1.1/"
   xmlns:cc="http://creativecommons.org/ns#"
   xmlns:rdf="http://www.w3.org/1999/02/22-rdf-syntax-ns#"
   xmlns:svg="http://www.w3.org/2000/svg"
   xmlns="http://www.w3.org/2000/svg"
   xmlns:sodipodi="http://sodipodi.sourceforge.net/DTD/sodipodi-0.dtd"
   xmlns:inkscape="http://www.inkscape.org/namespaces/inkscape"
   width="541"
   height="161"
   id="svg3855"
   version="1.1"
   inkscape:version="0.47 r22583"
   sodipodi:docname="exitActionsAFTER.eps">
  <defs
     id="defs3857">
    <inkscape:perspective
       sodipodi:type="inkscape:persp3d"
       inkscape:vp_x="0 : 526.18109 : 1"
       inkscape:vp_y="0 : 1000 : 0"
       inkscape:vp_z="744.09448 : 526.18109 : 1"
       inkscape:persp3d-origin="372.04724 : 350.78739 : 1"
       id="perspective3863" />
    <inkscape:perspective
       id="perspective3623"
       inkscape:persp3d-origin="0.5 : 0.33333333 : 1"
       inkscape:vp_z="1 : 0.5 : 1"
       inkscape:vp_y="0 : 1000 : 0"
       inkscape:vp_x="0 : 0.5 : 1"
       sodipodi:type="inkscape:persp3d" />
    <clipPath
       clipPathUnits="userSpaceOnUse"
       id="clipPath17">
      <path
         d="m -197,-14 591,0 0,42 -591,0 0,-42 z"
         id="path3245" />
    </clipPath>
    <clipPath
       clipPathUnits="userSpaceOnUse"
       id="clipPath3629">
      <path
         d="m -197,-14 591,0 0,42 -591,0 0,-42 z"
         id="path3631" />
    </clipPath>
    <clipPath
       clipPathUnits="userSpaceOnUse"
       id="clipPath16">
      <path
         d="m -199,-14 597,0 0,42 -597,0 0,-42 z"
         id="path3242" />
    </clipPath>
    <clipPath
       clipPathUnits="userSpaceOnUse"
       id="clipPath15">
      <path
         d="m -66,-14 198,0 0,42 -198,0 0,-42 z"
         id="path3239" />
    </clipPath>
    <clipPath
       clipPathUnits="userSpaceOnUse"
       id="clipPath3637">
      <path
         d="m -66,-14 198,0 0,42 -198,0 0,-42 z"
         id="path3639" />
    </clipPath>
    <clipPath
       clipPathUnits="userSpaceOnUse"
       id="clipPath14">
      <path
         d="m -67,-14 201,0 0,42 -201,0 0,-42 z"
         id="path3236" />
    </clipPath>
    <clipPath
       clipPathUnits="userSpaceOnUse"
       id="clipPath13">
      <path
         d="M 0,0 173,0 173,104 0,104 0,0 z"
         id="path3233" />
    </clipPath>
    <clipPath
       clipPathUnits="userSpaceOnUse"
       id="clipPath3645">
      <path
         d="M 0,0 173,0 173,104 0,104 0,0 z"
         id="path3647" />
    </clipPath>
    <clipPath
       clipPathUnits="userSpaceOnUse"
       id="clipPath3649">
      <path
         d="M 0,0 173,0 173,104 0,104 0,0 z"
         id="path3651" />
    </clipPath>
    <clipPath
       clipPathUnits="userSpaceOnUse"
       id="clipPath3653">
      <path
         d="M 0,0 173,0 173,104 0,104 0,0 z"
         id="path3655" />
    </clipPath>
    <clipPath
       clipPathUnits="userSpaceOnUse"
       id="clipPath3657">
      <path
         d="M 0,0 173,0 173,104 0,104 0,0 z"
         id="path3659" />
    </clipPath>
    <clipPath
       clipPathUnits="userSpaceOnUse"
       id="clipPath3661">
      <path
         d="M 0,0 173,0 173,104 0,104 0,0 z"
         id="path3663" />
    </clipPath>
    <clipPath
       clipPathUnits="userSpaceOnUse"
       id="clipPath3665">
      <path
         d="M 0,0 173,0 173,104 0,104 0,0 z"
         id="path3667" />
    </clipPath>
    <clipPath
       clipPathUnits="userSpaceOnUse"
       id="clipPath3669">
      <path
         d="M 0,0 173,0 173,104 0,104 0,0 z"
         id="path3671" />
    </clipPath>
    <clipPath
       clipPathUnits="userSpaceOnUse"
       id="clipPath3673">
      <path
         d="M 0,0 173,0 173,104 0,104 0,0 z"
         id="path3675" />
    </clipPath>
    <clipPath
       clipPathUnits="userSpaceOnUse"
       id="clipPath8">
      <path
         d="M 0,0 343,0 343,194 0,194 0,0 z"
         id="path3218" />
    </clipPath>
    <clipPath
       clipPathUnits="userSpaceOnUse"
       id="clipPath3679">
      <path
         d="M 0,0 343,0 343,194 0,194 0,0 z"
         id="path3681" />
    </clipPath>
    <clipPath
       clipPathUnits="userSpaceOnUse"
       id="clipPath3683">
      <path
         d="M 0,0 343,0 343,194 0,194 0,0 z"
         id="path3685" />
    </clipPath>
    <clipPath
       clipPathUnits="userSpaceOnUse"
       id="clipPath3687">
      <path
         d="M 0,0 343,0 343,194 0,194 0,0 z"
         id="path3689" />
    </clipPath>
    <clipPath
       clipPathUnits="userSpaceOnUse"
       id="clipPath3691">
      <path
         d="M 0,0 343,0 343,194 0,194 0,0 z"
         id="path3693" />
    </clipPath>
    <clipPath
       clipPathUnits="userSpaceOnUse"
       id="clipPath12">
      <path
         d="M 0,0 305,0 305,128 0,128 0,0 z"
         id="path3230" />
    </clipPath>
    <clipPath
       clipPathUnits="userSpaceOnUse"
       id="clipPath3697">
      <path
         d="M 0,0 305,0 305,128 0,128 0,0 z"
         id="path3699" />
    </clipPath>
    <clipPath
       clipPathUnits="userSpaceOnUse"
       id="clipPath3701">
      <path
         d="M 0,0 305,0 305,128 0,128 0,0 z"
         id="path3703" />
    </clipPath>
    <clipPath
       clipPathUnits="userSpaceOnUse"
       id="clipPath3705">
      <path
         d="M 0,0 305,0 305,128 0,128 0,0 z"
         id="path3707" />
    </clipPath>
    <clipPath
       clipPathUnits="userSpaceOnUse"
       id="clipPath11">
      <path
         d="M 0,0 303,0 303,104 0,104 0,0 z"
         id="path3227" />
    </clipPath>
    <clipPath
       clipPathUnits="userSpaceOnUse"
       id="clipPath3711">
      <path
         d="M 0,0 303,0 303,104 0,104 0,0 z"
         id="path3713" />
    </clipPath>
    <clipPath
       clipPathUnits="userSpaceOnUse"
       id="clipPath3715">
      <path
         d="M 0,0 303,0 303,104 0,104 0,0 z"
         id="path3717" />
    </clipPath>
    <clipPath
       clipPathUnits="userSpaceOnUse"
       id="clipPath6">
      <path
         d="m -80,-14 240,0 0,42 -240,0 0,-42 z"
         id="path3212" />
    </clipPath>
    <clipPath
       clipPathUnits="userSpaceOnUse"
       id="clipPath3721">
      <path
         d="m -80,-14 240,0 0,42 -240,0 0,-42 z"
         id="path3723" />
    </clipPath>
    <clipPath
       clipPathUnits="userSpaceOnUse"
       id="clipPath3725">
      <path
         d="m -80,-14 240,0 0,42 -240,0 0,-42 z"
         id="path3727" />
    </clipPath>
    <clipPath
       clipPathUnits="userSpaceOnUse"
       id="clipPath3729">
      <path
         d="m -80,-14 240,0 0,42 -240,0 0,-42 z"
         id="path3731" />
    </clipPath>
    <clipPath
       clipPathUnits="userSpaceOnUse"
       id="clipPath5">
      <path
         d="m -110,-14 330,0 0,42 -330,0 0,-42 z"
         id="path3209" />
    </clipPath>
    <clipPath
       clipPathUnits="userSpaceOnUse"
       id="clipPath3735">
      <path
         d="m -110,-14 330,0 0,42 -330,0 0,-42 z"
         id="path3737" />
    </clipPath>
    <clipPath
       clipPathUnits="userSpaceOnUse"
       id="clipPath3739">
      <path
         d="m -110,-14 330,0 0,42 -330,0 0,-42 z"
         id="path3741" />
    </clipPath>
    <clipPath
       clipPathUnits="userSpaceOnUse"
       id="clipPath4">
      <path
         d="m -7,-7 128,0 0,58 -128,0 0,-58 z"
         id="path3206" />
    </clipPath>
    <clipPath
       clipPathUnits="userSpaceOnUse"
       id="clipPath3745">
      <path
         d="m -7,-7 128,0 0,58 -128,0 0,-58 z"
         id="path3747" />
    </clipPath>
    <clipPath
       clipPathUnits="userSpaceOnUse"
       id="clipPath3749">
      <path
         d="m -7,-7 128,0 0,58 -128,0 0,-58 z"
         id="path3751" />
    </clipPath>
    <clipPath
       clipPathUnits="userSpaceOnUse"
       id="clipPath1">
      <path
         d="m -7,-7 98,0 0,58 -98,0 0,-58 z"
         id="path3197" />
    </clipPath>
    <clipPath
       clipPathUnits="userSpaceOnUse"
       id="clipPath3755">
      <path
         d="m -7,-7 98,0 0,58 -98,0 0,-58 z"
         id="path3757" />
    </clipPath>
    <clipPath
       clipPathUnits="userSpaceOnUse"
       id="clipPath3759">
      <path
         d="m -7,-7 98,0 0,58 -98,0 0,-58 z"
         id="path3761" />
    </clipPath>
    <clipPath
       clipPathUnits="userSpaceOnUse"
       id="clipPath3763">
      <path
         d="m -7,-7 98,0 0,58 -98,0 0,-58 z"
         id="path3765" />
    </clipPath>
  </defs>
  <sodipodi:namedview
     id="base"
     pagecolor="#ffffff"
     bordercolor="#666666"
     borderopacity="1.0"
     inkscape:pageopacity="0.0"
     inkscape:pageshadow="2"
     inkscape:zoom="2.7837338"
     inkscape:cx="270.5"
     inkscape:cy="80.5"
     inkscape:document-units="px"
     inkscape:current-layer="layer1"
     showgrid="false"
     inkscape:window-width="1600"
     inkscape:window-height="1155"
     inkscape:window-x="0"
     inkscape:window-y="0"
     inkscape:window-maximized="1" />
  <metadata
     id="metadata3860">
    <rdf:RDF>
      <cc:Work
         rdf:about="">
        <dc:format>image/svg+xml</dc:format>
        <dc:type
           rdf:resource="http://purl.org/dc/dcmitype/StillImage" />
        <dc:title></dc:title>
      </cc:Work>
    </rdf:RDF>
  </metadata>
  <g
     inkscape:label="Layer 1"
     inkscape:groupmode="layer"
     id="layer1"
     transform="translate(-120.92857,-329.00504)">
    <g
       style="font-size:11px;fill:#000000;fill-opacity:1;stroke:#000000;stroke-linecap:butt;stroke-linejoin:round;stroke-miterlimit:0;stroke-opacity:1;font-family:sans-serif"
       font-size="11"
       transform="translate(581.42857,329.50504)"
       text-rendering="geometricPrecision"
       stroke-miterlimit="0"
       id="g3304">
      <rect
         style="fill:none"
         x="0"
         y="0"
         clip-path="url(#clipPath1)"
         width="80"
         rx="10"
         ry="10"
         height="40"
         id="rect3306" />
    </g>
    <g
       style="font-size:11px;fill:#000000;fill-opacity:1;stroke:#000000;stroke-linecap:butt;stroke-linejoin:round;stroke-miterlimit:0;stroke-opacity:1;font-family:sans-serif"
       font-size="11"
       transform="translate(121.42857,339.50504)"
       text-rendering="geometricPrecision"
       stroke-miterlimit="0"
       id="g3312">
      <rect
         style="fill:none"
         x="0"
         y="0"
         clip-path="url(#clipPath1)"
         width="80"
         rx="10"
         ry="10"
         height="40"
         id="rect3314" />
    </g>
    <g
       style="font-size:11px;fill:#000000;fill-opacity:1;stroke:#000000;stroke-linecap:butt;stroke-linejoin:round;stroke-miterlimit:0;stroke-opacity:1;font-family:sans-serif"
       font-size="11"
       transform="translate(581.42857,379.50504)"
       text-rendering="geometricPrecision"
       stroke-miterlimit="0"
       id="g3320">
      <rect
         style="fill:none"
         x="0"
         y="0"
         clip-path="url(#clipPath1)"
         width="80"
         rx="10"
         ry="10"
         height="40"
         id="rect3322" />
    </g>
    <g
       style="font-size:11px;fill:#000000;fill-opacity:1;stroke:#000000;stroke-linecap:butt;stroke-linejoin:round;stroke-miterlimit:0;stroke-opacity:1;font-family:sans-serif"
       font-size="11"
       transform="translate(581.42857,449.50504)"
       text-rendering="geometricPrecision"
       stroke-miterlimit="0"
       id="g3328">
      <rect
         style="fill:none"
         x="0"
         y="0"
         clip-path="url(#clipPath1)"
         width="80"
         rx="10"
         ry="10"
         height="40"
         id="rect3330" />
    </g>
    <g
       style="font-size:11px;fill:#000000;fill-opacity:1;stroke:#000000;stroke-linecap:butt;stroke-linejoin:round;stroke-miterlimit:0;stroke-opacity:1;font-family:sans-serif"
       font-size="11"
       transform="translate(401.42857,329.50504)"
       text-rendering="geometricPrecision"
       stroke-miterlimit="0"
       id="g3336">
      <rect
         style="fill:none"
         x="0"
         y="0"
         clip-path="url(#clipPath4)"
         width="110"
         rx="10"
         ry="10"
         height="40"
         id="rect3338" />
    </g>
    <g
       style="font-size:11px;fill:#000000;fill-opacity:1;stroke:#000000;stroke-linecap:butt;stroke-linejoin:round;stroke-miterlimit:0;stroke-opacity:1;font-family:sans-serif"
       font-size="11"
       transform="translate(401.42857,379.50504)"
       text-rendering="geometricPrecision"
       stroke-miterlimit="0"
       id="g3344">
      <rect
         style="fill:none"
         x="0"
         y="0"
         clip-path="url(#clipPath4)"
         width="110"
         rx="10"
         ry="10"
         height="40"
         id="rect3346" />
    </g>
    <g
       style="font-size:11px;fill:#000000;fill-opacity:1;stroke:#000000;stroke-linecap:butt;stroke-linejoin:round;stroke-miterlimit:0;stroke-opacity:1;font-family:sans-serif"
       font-size="11"
       transform="translate(401.42857,449.50504)"
       text-rendering="geometricPrecision"
       stroke-miterlimit="0"
       id="g3352">
      <rect
         style="fill:none"
         x="0"
         y="0"
         clip-path="url(#clipPath4)"
         width="110"
         rx="10"
         ry="10"
         height="40"
         id="rect3354" />
    </g>
    <g
       style="font-size:11px;fill:#000000;fill-opacity:1;stroke:#000000;stroke-opacity:1;font-family:sans-serif"
       font-size="11"
       transform="translate(401.42857,449.50504)"
       text-rendering="geometricPrecision"
       id="g3356">
      <text
         style="stroke:none"
         x="8"
         xml:space="preserve"
         y="11"
         clip-path="url(#clipPath5)"
         id="text3358">State_TO_StateN</text>
    </g>
    <g
       style="font-size:11px;fill:#000000;fill-opacity:1;stroke:#000000;stroke-opacity:1;font-family:sans-serif"
       font-size="11"
       transform="translate(401.42857,379.50504)"
       text-rendering="geometricPrecision"
       id="g3360">
      <text
         style="stroke:none"
         x="9"
         xml:space="preserve"
         y="11"
         clip-path="url(#clipPath5)"
         id="text3362">State_TO_State2</text>
    </g>
    <g
       style="font-size:11px;fill:#000000;fill-opacity:1;stroke:#000000;stroke-opacity:1;font-family:sans-serif"
       font-size="11"
       transform="translate(401.42857,329.50504)"
       text-rendering="geometricPrecision"
       id="g3364">
      <text
         style="stroke:none"
         x="9"
         xml:space="preserve"
         y="11"
         clip-path="url(#clipPath5)"
         id="text3366">State_TO_State1</text>
    </g>
    <g
       style="font-size:11px;fill:#000000;fill-opacity:1;stroke:#000000;stroke-opacity:1;font-family:sans-serif"
       font-size="11"
       transform="translate(581.42857,449.50504)"
       text-rendering="geometricPrecision"
       id="g3368">
      <text
         style="stroke:none"
         x="20"
         xml:space="preserve"
         y="11"
         clip-path="url(#clipPath6)"
         id="text3370">StateN</text>
    </g>
    <g
       style="font-size:11px;fill:#000000;fill-opacity:1;stroke:#000000;stroke-opacity:1;font-family:sans-serif"
       font-size="11"
       transform="translate(581.42857,379.50504)"
       text-rendering="geometricPrecision"
       id="g3372">
      <text
         style="stroke:none"
         x="21"
         xml:space="preserve"
         y="11"
         clip-path="url(#clipPath6)"
         id="text3374">State2</text>
    </g>
    <g
       style="font-size:11px;fill:#000000;fill-opacity:1;stroke:#000000;stroke-opacity:1;font-family:sans-serif"
       font-size="11"
       transform="translate(121.42857,339.50504)"
       text-rendering="geometricPrecision"
       id="g3376">
      <text
         style="stroke:none"
         x="24"
         xml:space="preserve"
         y="11"
         clip-path="url(#clipPath6)"
         id="text3378">State</text>
    </g>
    <g
       style="font-size:11px;fill:#000000;fill-opacity:1;stroke:#000000;stroke-opacity:1;font-family:sans-serif"
       font-size="11"
       transform="translate(581.42857,329.50504)"
       text-rendering="geometricPrecision"
       id="g3380">
      <text
         style="stroke:none"
         x="21"
         xml:space="preserve"
         y="11"
         clip-path="url(#clipPath6)"
         id="text3382">State1</text>
    </g>
    <g
       style="font-size:11px;fill:#000000;fill-opacity:1;stroke:#000000;stroke-linecap:butt;stroke-linejoin:round;stroke-opacity:1;font-family:sans-serif"
       font-size="11"
       transform="translate(151.42857,299.50504)"
       text-rendering="geometricPrecision"
       id="g3430">
      <line
         style="fill:none"
         y2="50"
         x1="50"
         clip-path="url(#clipPath11)"
         x2="249"
         y1="50"
         id="line3432" />
      <line
         style="fill:none"
         y2="44"
         x1="249"
         clip-path="url(#clipPath11)"
         x2="237"
         y1="50"
         id="line3434" />
      <line
         style="fill:none"
         y2="56"
         x1="249"
         clip-path="url(#clipPath11)"
         x2="237"
         y1="50"
         id="line3436" />
    </g>
    <g
       style="font-size:11px;fill:#000000;fill-opacity:1;stroke:#000000;stroke-linecap:butt;stroke-linejoin:round;stroke-opacity:1;font-family:sans-serif"
       font-size="11"
       transform="translate(149.42857,325.50504)"
       text-rendering="geometricPrecision"
       id="g3438">
      <line
         style="fill:none"
         y2="74"
         x1="50"
         clip-path="url(#clipPath12)"
         x2="62"
         y1="50"
         id="line3440" />
      <line
         style="fill:none"
         y2="74"
         x1="62"
         clip-path="url(#clipPath12)"
         x2="251"
         y1="74"
         id="line3442" />
      <line
         style="fill:none"
         y2="68"
         x1="251"
         clip-path="url(#clipPath12)"
         x2="239"
         y1="74"
         id="line3444" />
      <line
         style="fill:none"
         y2="80"
         x1="251"
         clip-path="url(#clipPath12)"
         x2="239"
         y1="74"
         id="line3446" />
    </g>
    <g
       style="font-size:11px;fill:#000000;fill-opacity:1;stroke:#000000;stroke-linecap:butt;stroke-linejoin:round;stroke-opacity:1;font-family:sans-serif"
       font-size="11"
       transform="translate(111.42857,329.50504)"
       text-rendering="geometricPrecision"
       id="g3448">
      <line
         style="fill:none"
         y2="70"
         x1="50"
         clip-path="url(#clipPath8)"
         x2="50"
         y1="50"
         id="line3450" />
      <line
         style="fill:none"
         y2="140"
         x1="50"
         clip-path="url(#clipPath8)"
         x2="100"
         y1="70"
         id="line3452" />
      <line
         style="fill:none"
         y2="140"
         x1="100"
         clip-path="url(#clipPath8)"
         x2="289"
         y1="140"
         id="line3454" />
      <line
         style="fill:none"
         y2="134"
         x1="289"
         clip-path="url(#clipPath8)"
         x2="277"
         y1="140"
         id="line3456" />
      <line
         style="fill:none"
         y2="146"
         x1="289"
         clip-path="url(#clipPath8)"
         x2="277"
         y1="140"
         id="line3458" />
    </g>
    <g
       style="font-size:11px;fill:#000000;fill-opacity:1;stroke:#000000;stroke-linecap:butt;stroke-linejoin:round;stroke-opacity:1;font-family:sans-serif"
       font-size="11"
       transform="translate(461.42857,299.50504)"
       text-rendering="geometricPrecision"
       id="g3460">
      <line
         style="fill:none"
         y2="50"
         x1="50"
         clip-path="url(#clipPath13)"
         x2="119"
         y1="50"
         id="line3462" />
      <line
         style="fill:none"
         y2="44"
         x1="119"
         clip-path="url(#clipPath13)"
         x2="107"
         y1="50"
         id="line3464" />
      <line
         style="fill:none"
         y2="56"
         x1="119"
         clip-path="url(#clipPath13)"
         x2="107"
         y1="50"
         id="line3466" />
    </g>
    <g
       style="font-size:11px;fill:#000000;fill-opacity:1;stroke:#000000;stroke-linecap:butt;stroke-linejoin:round;stroke-opacity:1;font-family:sans-serif"
       font-size="11"
       transform="translate(461.42857,349.50504)"
       text-rendering="geometricPrecision"
       id="g3468">
      <line
         style="fill:none"
         y2="50"
         x1="50"
         clip-path="url(#clipPath13)"
         x2="119"
         y1="50"
         id="line3470" />
      <line
         style="fill:none"
         y2="44"
         x1="119"
         clip-path="url(#clipPath13)"
         x2="107"
         y1="50"
         id="line3472" />
      <line
         style="fill:none"
         y2="56"
         x1="119"
         clip-path="url(#clipPath13)"
         x2="107"
         y1="50"
         id="line3474" />
    </g>
    <g
       style="font-size:11px;fill:#000000;fill-opacity:1;stroke:#000000;stroke-linecap:butt;stroke-linejoin:round;stroke-opacity:1;font-family:sans-serif"
       font-size="11"
       transform="translate(461.42857,419.50504)"
       text-rendering="geometricPrecision"
       id="g3476">
      <line
         style="fill:none"
         y2="50"
         x1="50"
         clip-path="url(#clipPath13)"
         x2="119"
         y1="50"
         id="line3478" />
      <line
         style="fill:none"
         y2="44"
         x1="119"
         clip-path="url(#clipPath13)"
         x2="107"
         y1="50"
         id="line3480" />
      <line
         style="fill:none"
         y2="56"
         x1="119"
         clip-path="url(#clipPath13)"
         x2="107"
         y1="50"
         id="line3482" />
    </g>
    <g
       style="font-size:11px;fill:#000000;fill-opacity:1;stroke:#000000;stroke-opacity:1;font-family:sans-serif"
       font-size="11"
       transform="translate(511.42857,449.50504)"
       text-rendering="geometricPrecision"
       id="g3484">
      <text
         style="stroke:none"
         x="10"
         xml:space="preserve"
         y="11"
         clip-path="url(#clipPath14)"
         id="text3486">/ effectN</text>
    </g>
    <g
       style="font-size:11px;fill:#000000;fill-opacity:1;stroke:#000000;stroke-opacity:1;font-family:sans-serif"
       font-size="11"
       transform="translate(511.42857,379.50504)"
       text-rendering="geometricPrecision"
       id="g3488">
      <text
         style="stroke:none"
         x="10"
         xml:space="preserve"
         y="11"
         clip-path="url(#clipPath15)"
         id="text3490">/ effect2</text>
    </g>
    <g
       style="font-size:11px;fill:#000000;fill-opacity:1;stroke:#000000;stroke-opacity:1;font-family:sans-serif"
       font-size="11"
       transform="translate(511.42857,329.50504)"
       text-rendering="geometricPrecision"
       id="g3492">
      <text
         style="stroke:none"
         x="10"
         xml:space="preserve"
         y="11"
         clip-path="url(#clipPath15)"
         id="text3494">/ effect1</text>
    </g>
    <g
       style="font-size:11px;fill:#000000;fill-opacity:1;stroke:#000000;stroke-opacity:1;font-family:sans-serif"
       font-size="11"
       transform="translate(211.42857,449.50504)"
       text-rendering="geometricPrecision"
       id="g3496">
      <text
         style="stroke:none"
         x="10"
         xml:space="preserve"
         y="11"
         clip-path="url(#clipPath16)"
         id="text3498">triggerN [guardN] / exitActivity()</text>
    </g>
    <g
       style="font-size:11px;fill:#000000;fill-opacity:1;stroke:#000000;stroke-opacity:1;font-family:sans-serif"
       font-size="11"
       transform="translate(211.42857,379.50504)"
       text-rendering="geometricPrecision"
       id="g3500">
      <text
         style="stroke:none"
         x="10"
         xml:space="preserve"
         y="11"
         clip-path="url(#clipPath17)"
         id="text3502">trigger2 [guard2] / exitActivity()</text>
    </g>
    <g
       style="font-size:11px;fill:#000000;fill-opacity:1;stroke:#000000;stroke-opacity:1;font-family:sans-serif"
       font-size="11"
       transform="translate(211.42857,329.50504)"
       text-rendering="geometricPrecision"
       id="g3504">
      <text
         style="stroke:none"
         x="10"
         xml:space="preserve"
         y="11"
         clip-path="url(#clipPath17)"
         id="text3506">trigger1 [guard1] / exitActivity()</text>
    </g>
  </g>
</svg>
